# xmcd CD database file
#
# Track frame offsets:
#	150
#	10138
#	22099
#	34679
#	44791
#	54009
#	63498
#	75935
#	87683
#	98494
#
# Disc length: 1459 seconds
#
# Revision: 0
# Processed by: cddbd v1.5.2PL0 Copyright (c) Steve Scherf et al.
# Submitted via: CDex 1.51
#
DISCID=7305b10a
DTITLE=Jim Reeves - Country Crooner
DYEAR=2006
DGENRE=Country
TTITLE0=He'll Have To Go
TTITLE1=Mexican Joe
TTITLE2=Bimbo
TTITLE3=Anna Marie
TTITLE4=Home
TTITLE5=I'm Getting Better
TTITLE6=Drinking Tequila
TTITLE7=Your Old Love Letters
TTITLE8=Then I'll Stop Loving You
TTITLE9=Have I Told You Lately That I Love You
EXTD=YEAR: 2006
EXTT0=
EXTT1=
EXTT2=
EXTT3=
EXTT4=
EXTT5=
EXTT6=
EXTT7=
EXTT8=
EXTT9=
PLAYORDER=
